<svg width="38" height="28" viewBox="0 0 38 28" fill="none" xmlns="http://www.w3.org/2000/svg">
<g clip-path="url(#clip0_109_608)">
<path d="M37.2052 4.7945C36.7682 3.14942 35.4809 1.85267 33.8453 1.4125C30.8829 0.614502 19 0.614502 19 0.614502C19 0.614502 7.11708 0.614502 4.15308 1.4125C2.51908 1.85267 1.23183 3.14784 0.794833 4.7945C0 7.7775 0 14 0 14C0 14 0 20.2225 0.794833 23.2055C1.23183 24.8506 2.51908 26.1473 4.15467 26.5875C7.11708 27.3855 19 27.3855 19 27.3855C19 27.3855 30.8829 27.3855 33.8469 26.5875C35.4809 26.1473 36.7682 24.8522 37.2068 23.2055C38 20.2225 38 14 38 14C38 14 38 7.7775 37.2052 4.7945ZM15.1145 19.6509V8.34909L25.0452 14L15.1145 19.6509Z" fill="white"/>
</g>
<defs>
<clipPath id="clip0_109_608">
<rect width="38" height="28" fill="white"/>
</clipPath>
</defs>
</svg>
