<svg width="38" height="38" viewBox="0 0 38 38" fill="none" xmlns="http://www.w3.org/2000/svg">
<g clip-path="url(#clip0_109_605)">
<path fill-rule="evenodd" clip-rule="evenodd" d="M19 0C8.50725 0 0 8.50725 0 19C0 29.4928 8.50725 38 19 38C29.4928 38 38 29.4928 38 19C38 8.50725 29.4928 0 19 0ZM27.8065 12.9216C27.5215 15.9252 26.2833 23.2164 25.6547 26.581C25.3888 28.006 24.8631 28.4826 24.3564 28.5285C23.2528 28.6298 22.4153 27.7986 21.3465 27.0988C19.6745 26.0031 18.7292 25.3207 17.1063 24.2503C15.2301 23.0138 16.4461 22.3345 17.5148 21.2246C17.7951 20.9333 22.6559 16.511 22.7509 16.1104C22.762 16.0598 22.7747 15.8729 22.6623 15.7748C22.5498 15.6766 22.3867 15.7098 22.2696 15.7368C22.1017 15.7748 19.4307 17.5402 14.2548 21.033C13.4963 21.5539 12.8092 21.8073 12.1933 21.7946C11.5156 21.7803 10.2109 21.4114 9.24033 21.0948C8.05125 20.7084 7.10442 20.5026 7.18675 19.8471C7.2295 19.5051 7.69975 19.1552 8.59908 18.7973C14.1376 16.3843 17.8315 14.7931 19.6793 14.0236C24.9565 11.8291 26.0522 11.4475 26.7678 11.4348C27.664 11.4222 27.8793 12.1616 27.8065 12.9216Z" fill="white"/>
</g>
<defs>
<clipPath id="clip0_109_605">
<rect width="38" height="38" fill="white"/>
</clipPath>
</defs>
</svg>
