<svg width="38" height="38" viewBox="0 0 38 38" fill="none" xmlns="http://www.w3.org/2000/svg">
<g clip-path="url(#clip0_109_611)">
<path d="M19 3.42317C24.073 3.42317 24.6747 3.44217 26.6776 3.534C28.7486 3.629 30.8813 4.10083 32.3903 5.60975C33.9134 7.13292 34.371 9.24508 34.466 11.3224C34.5578 13.3253 34.5768 13.927 34.5768 19C34.5768 24.073 34.5578 24.6747 34.466 26.6776C34.3726 28.7375 33.8897 30.8908 32.3903 32.3903C30.8671 33.9134 28.7565 34.371 26.6776 34.466C24.6747 34.5578 24.073 34.5768 19 34.5768C13.927 34.5768 13.3253 34.5578 11.3224 34.466C9.27833 34.3726 7.0965 33.8786 5.60975 32.3903C4.0945 30.875 3.629 28.7423 3.534 26.6776C3.44217 24.6747 3.42317 24.073 3.42317 19C3.42317 13.927 3.44217 13.3253 3.534 11.3224C3.62742 9.27042 4.11508 7.10442 5.60975 5.60975C7.12975 4.08975 9.24983 3.629 11.3224 3.534C13.3253 3.44217 13.927 3.42317 19 3.42317ZM19 0C13.8399 0 13.1923 0.0221667 11.1657 0.114C8.22858 0.248583 5.31208 1.06558 3.18883 3.18883C1.05767 5.32 0.248583 8.23017 0.114 11.1657C0.0221667 13.1923 0 13.8399 0 19C0 24.1601 0.0221667 24.8077 0.114 26.8343C0.248583 29.7683 1.06875 32.6927 3.18883 34.8112C5.31842 36.9408 8.23333 37.7514 11.1657 37.886C13.1923 37.9778 13.8399 38 19 38C24.1601 38 24.8077 37.9778 26.8343 37.886C29.7698 37.7514 32.6895 36.9328 34.8112 34.8112C36.9439 32.6784 37.7514 29.7698 37.886 26.8343C37.9778 24.8077 38 24.1601 38 19C38 13.8399 37.9778 13.1923 37.886 11.1657C37.7514 8.22858 36.9328 5.3105 34.8112 3.18883C32.6847 1.06242 29.7619 0.247 26.8343 0.114C24.8077 0.0221667 24.1601 0 19 0Z" fill="white"/>
<path d="M19 9.24341C13.6119 9.24341 9.2435 13.6118 9.2435 18.9999C9.2435 24.388 13.6119 28.7564 19 28.7564C24.3881 28.7564 28.7565 24.388 28.7565 18.9999C28.7565 13.6118 24.3881 9.24341 19 9.24341ZM19 25.3332C15.5024 25.3332 12.6667 22.4975 12.6667 18.9999C12.6667 15.5023 15.5024 12.6666 19 12.6666C22.4976 12.6666 25.3333 15.5023 25.3333 18.9999C25.3333 22.4975 22.4976 25.3332 19 25.3332Z" fill="white"/>
<path d="M29.1428 11.1371C30.402 11.1371 31.4228 10.1164 31.4228 8.85715C31.4228 7.59794 30.402 6.57715 29.1428 6.57715C27.8836 6.57715 26.8628 7.59794 26.8628 8.85715C26.8628 10.1164 27.8836 11.1371 29.1428 11.1371Z" fill="white"/>
</g>
<defs>
<clipPath id="clip0_109_611">
<rect width="38" height="38" fill="white"/>
</clipPath>
</defs>
</svg>
