<svg width="25" height="25" viewBox="0 0 25 25" fill="none" xmlns="http://www.w3.org/2000/svg">
<g opacity="0.5">
<path d="M24.8136 11.6469C23.899 9.64687 20.3125 3.125 12.5 3.125C4.68752 3.125 1.10106 9.64687 0.186477 11.6469C0.0637042 11.9149 0.000152588 12.2062 0.000152588 12.501C0.000152588 12.7958 0.0637042 13.0872 0.186477 13.3552C1.10106 15.3531 4.68752 21.875 12.5 21.875C20.3125 21.875 23.899 15.3531 24.8136 13.3531C24.9361 13.0854 24.9995 12.7944 24.9995 12.5C24.9995 12.2056 24.9361 11.9146 24.8136 11.6469ZM12.5 19.7917C5.93023 19.7917 2.8646 14.2021 2.08335 12.5115C2.8646 10.7979 5.93023 5.20833 12.5 5.20833C19.0542 5.20833 22.1209 10.774 22.9167 12.5C22.1209 14.226 19.0542 19.7917 12.5 19.7917Z" fill="black"/>
<path d="M12.5 7.29163C11.4699 7.29163 10.4629 7.59709 9.6064 8.16939C8.74989 8.74169 8.08233 9.55512 7.68812 10.5068C7.29391 11.4585 7.19077 12.5057 7.39174 13.5161C7.5927 14.5264 8.08875 15.4544 8.81714 16.1828C9.54554 16.9112 10.4736 17.4073 11.4839 17.6082C12.4942 17.8092 13.5414 17.706 14.4931 17.3118C15.4448 16.9176 16.2583 16.2501 16.8306 15.3936C17.4029 14.537 17.7083 13.5301 17.7083 12.5C17.7067 11.1191 17.1574 9.79533 16.181 8.81894C15.2046 7.84254 13.8808 7.29328 12.5 7.29163ZM12.5 15.625C11.8819 15.625 11.2777 15.4417 10.7638 15.0983C10.2499 14.7549 9.84939 14.2669 9.61287 13.6958C9.37634 13.1248 9.31446 12.4965 9.43504 11.8903C9.55562 11.2841 9.85324 10.7273 10.2903 10.2903C10.7273 9.85321 11.2841 9.55558 11.8903 9.435C12.4965 9.31443 13.1249 9.37631 13.6959 9.61284C14.2669 9.84936 14.755 10.2499 15.0983 10.7638C15.4417 11.2777 15.625 11.8819 15.625 12.5C15.625 13.3288 15.2958 14.1236 14.7097 14.7097C14.1237 15.2957 13.3288 15.625 12.5 15.625Z" fill="black"/>
</g>
</svg>
