<svg width="21" height="23" viewBox="0 0 21 23" fill="none" xmlns="http://www.w3.org/2000/svg">
<path d="M4.91467 7.61673C4.99214 7.53081 5.08431 7.46262 5.18586 7.41608C5.28741 7.36954 5.39633 7.34558 5.50634 7.34558C5.61635 7.34558 5.72527 7.36954 5.82682 7.41608C5.92837 7.46262 6.02053 7.53081 6.098 7.61673L9.91467 11.8151C9.99214 11.901 10.0843 11.9692 10.1859 12.0157C10.2874 12.0623 10.3963 12.0862 10.5063 12.0862C10.6163 12.0862 10.7253 12.0623 10.8268 12.0157C10.9284 11.9692 11.0205 11.901 11.098 11.8151L14.9147 7.61673C14.9921 7.53081 15.0843 7.46262 15.1859 7.41608C15.2874 7.36954 15.3963 7.34558 15.5063 7.34558C15.6163 7.34558 15.7253 7.36954 15.8268 7.41608C15.9284 7.46262 16.0205 7.53081 16.098 7.61673C16.2532 7.78848 16.3403 8.02081 16.3403 8.26298C16.3403 8.50515 16.2532 8.73748 16.098 8.90923L12.273 13.1167C11.8043 13.6317 11.1688 13.921 10.5063 13.921C9.84384 13.921 9.20842 13.6317 8.73967 13.1167L4.91467 8.90923C4.75946 8.73748 4.67234 8.50515 4.67234 8.26298C4.67234 8.02081 4.75946 7.78848 4.91467 7.61673Z" fill="black" fill-opacity="0.5"/>
</svg>
